<svg width="28" height="27" viewBox="0 0 28 27" fill="none" xmlns="http://www.w3.org/2000/svg">
<path opacity="0.3" d="M11.0977 11.9889C8.61238 11.9889 6.59766 10.0488 6.59766 7.6556C6.59766 5.26236 8.61238 3.32227 11.0977 3.32227C13.5829 3.32227 15.5977 5.26236 15.5977 7.6556C15.5977 10.0488 13.5829 11.9889 11.0977 11.9889Z" fill="black"/>
<path d="M0.973389 21.9547C1.40945 16.7842 5.76731 14.1555 11.0789 14.1555C16.4653 14.1555 20.8907 16.6398 21.2203 21.9555C21.2334 22.1673 21.2203 22.8222 20.3752 22.8222C16.2064 22.8222 10.0117 22.8222 1.7911 22.8222C1.50896 22.8222 0.949637 22.2363 0.973389 21.9547Z" fill="black"/>
</svg>
