<svg width="104" height="104" viewBox="0 0 104 104" fill="none" xmlns="http://www.w3.org/2000/svg">
<circle opacity="0.1" cx="51.9485" cy="52.1174" r="51.7424" fill="#FF8328"/>
<path d="M61.2944 29.6035H41.6028C40.2955 29.6035 39.6418 29.6035 39.0621 29.86C38.4823 30.1164 38.0426 30.6001 37.1632 31.5675L29.6513 39.8305C28.1148 41.5207 27.3466 42.3658 27.2765 43.4091C27.2065 44.4524 27.8549 45.3926 29.1517 47.273L49.8022 77.2162C50.5497 78.3001 50.9235 78.8421 51.4486 78.8421C51.9737 78.8421 52.3475 78.3001 53.095 77.2162L73.7455 47.273C75.0423 45.3926 75.6907 44.4524 75.6207 43.4091C75.5507 42.3658 74.7824 41.5207 73.2459 39.8305L65.734 31.5675C64.8546 30.6001 64.4149 30.1164 63.8352 29.86C63.2554 29.6035 62.6017 29.6035 61.2944 29.6035Z" stroke="#FF8B34" stroke-width="1.5" stroke-linejoin="round"/>
<path d="M27.4486 43.3535L41.3375 44.6035M77.4486 43.3535L63.5597 44.6035M41.3375 44.6035L51.972 78.1023C52.1196 78.5673 52.7776 78.5673 52.9252 78.1023L63.5597 44.6035M41.3375 44.6035H63.5597M41.3375 44.6035L51.6451 30.6883C52.0448 30.1486 52.8524 30.1486 53.2522 30.6883L63.5597 44.6035" stroke="#FF9F57" stroke-width="1.5" stroke-linejoin="round"/>
</svg>
