<svg width="105" height="104" viewBox="0 0 105 104" fill="none" xmlns="http://www.w3.org/2000/svg">
<circle opacity="0.1" cx="52.4489" cy="52.1174" r="51.7424" fill="#2B59FF"/>
<g clip-path="url(#clip0_1057_1096)">
<path d="M49.4058 29.7462C50.5735 26.2412 55.3244 26.2412 56.4922 29.7462L60.0295 40.3636C60.5446 41.9098 61.9276 42.9582 63.4962 42.9915L74.2676 43.2205C77.8234 43.2961 79.2915 48.0104 76.4574 50.2522L67.8722 57.0432C66.622 58.0321 66.0937 59.7284 66.548 61.2952L69.6678 72.0542C70.6977 75.6059 66.8541 78.5195 63.9348 76.4L55.0916 69.9796C53.8037 69.0446 52.0942 69.0446 50.8064 69.9796L41.9632 76.4C39.0439 78.5195 35.2003 75.6059 36.2302 72.0542L39.3499 61.2952C39.8043 59.7284 39.276 58.0321 38.0257 57.0432L29.4405 50.2522C26.6064 48.0104 28.0746 43.2961 31.6304 43.2205L42.4017 42.9915C43.9703 42.9582 45.3534 41.9098 45.8685 40.3636L49.4058 29.7462Z" stroke="#033FFF" stroke-width="1.5"/>
</g>
<defs>
<clipPath id="clip0_1057_1096">
<rect width="53" height="54" fill="white" transform="translate(25.949 25.1174)"/>
</clipPath>
</defs>
</svg>
